{
  "accessors": [
    {
      "bufferView": 2,
      "componentType": 5126,
      "count": 1656,
      "max": [
        10.633166313171387,
        10.216897010803223,
        2.5283432006835938
      ],
      "min": [
        -10.633166313171387,
        -0.05986809358000755,
        -2.980510711669922
      ],
      "type": "VEC3"
    },
    {
      "bufferView": 2,
      "byteOffset": 19872,
      "componentType": 5126,
      "count": 1656,
      "max": [
        1.0,
        1.0,
        1.0
      ],
      "min": [
        -1.0,
        -1.0,
        -1.0
      ],
      "type": "VEC3"
    },
    {
      "bufferView": 1,
      "componentType": 5126,
      "count": 1656,
      "max": [
        0.9995003938674927,
        0.9995005130767822
      ],
      "min": [
        0.0004643108695745468,
        0.00037682056427001953
      ],
      "type": "VEC2"
    },
    {
      "bufferView": 0,
      "componentType": 5125,
      "count": 3852,
      "type": "SCALAR"
    },
    {
      "bufferView": 2,
      "byteOffset": 39744,
      "componentType": 5126,
      "count": 936,
      "max": [
        12.47482967376709,
        10.570500373840332,
        3.0131750106811523
      ],
      "min": [
        -12.47482967376709,
        4.901517391204834,
        -3.0131750106811523
      ],
      "type": "VEC3"
    },
    {
      "bufferView": 2,
      "byteOffset": 50976,
      "componentType": 5126,
      "count": 936,
      "max": [
        0.9997553825378418,
        0.9998167157173157,
        0.9999920129776001
      ],
      "min": [
        -0.9997553825378418,
        -0.9999956488609314,
        -0.9999763369560242
      ],
      "type": "VEC3"
    },
    {
      "bufferView": 1,
      "byteOffset": 13248,
      "componentType": 5126,
      "count": 936,
      "max": [
        0.6852065920829773,
        0.9995003938674927
      ],
      "min": [
        0.0002983212471008301,
        0.0004995018243789673
      ],
      "type": "VEC2"
    },
    {
      "bufferView": 0,
      "byteOffset": 15408,
      "componentType": 5125,
      "count": 3156,
      "type": "SCALAR"
    }
  ],
  "asset": {
    "extras": {
      "author": "elouisetrewartha (https://sketchfab.com/etrewartha)",
      "license": "CC-BY-NC-4.0 (http://creativecommons.org/licenses/by-nc/4.0/)",
      "source": "https://sketchfab.com/3d-models/basic-park-bench-a8a26f771d5845f092e71371a6e30566",
      "title": "Basic Park Bench"
    },
    "generator": "Sketchfab-12.66.0",
    "version": "2.0"
  },
  "bufferViews": [
    {
      "buffer": 0,
      "byteLength": 28032,
      "name": "floatBufferViews",
      "target": 34963
    },
    {
      "buffer": 0,
      "byteLength": 20736,
      "byteOffset": 28032,
      "byteStride": 8,
      "name": "floatBufferViews",
      "target": 34962
    },
    {
      "buffer": 0,
      "byteLength": 62208,
      "byteOffset": 48768,
      "byteStride": 12,
      "name": "floatBufferViews",
      "target": 34962
    }
  ],
  "buffers": [
    {
      "byteLength": 110976,
      "uri": "scene.bin"
    }
  ],
  "images": [
    {
      "uri": "textures/chair_black_metal_blinn_baseColor.png"
    },
    {
      "uri": "textures/chair_wood_blinn_baseColor.png"
    }
  ],
  "materials": [
    {
      "doubleSided": true,
      "name": "chair_black_metal_blinn",
      "pbrMetallicRoughness": {
        "baseColorTexture": {
          "index": 0
        },
        "metallicFactor": 0.0,
        "roughnessFactor": 0.15000000000000002
      }
    },
    {
      "doubleSided": true,
      "emissiveFactor": [
        0.013986,
        0.013986,
        0.013986
      ],
      "name": "chair_wood_blinn",
      "pbrMetallicRoughness": {
        "baseColorTexture": {
          "index": 1
        },
        "metallicFactor": 0.0,
        "roughnessFactor": 0.25
      }
    }
  ],
  "meshes": [
    {
      "name": "chair_combined_uvs_result_chair_black_metal_blinn_0",
      "primitives": [
        {
          "attributes": {
            "NORMAL": 1,
            "POSITION": 0,
            "TEXCOORD_0": 2
          },
          "indices": 3,
          "material": 0,
          "mode": 4
        }
      ]
    },
    {
      "name": "chair_combined_uvs_result_chair_wood_blinn_0",
      "primitives": [
        {
          "attributes": {
            "NORMAL": 5,
            "POSITION": 4,
            "TEXCOORD_0": 6
          },
          "indices": 7,
          "material": 1,
          "mode": 4
        }
      ]
    }
  ],
  "nodes": [
    {
      "children": [
        1
      ],
      "matrix": [
        1.0,
        0.0,
        0.0,
        0.0,
        0.0,
        2.220446049250313e-16,
        -1.0,
        0.0,
        0.0,
        1.0,
        2.220446049250313e-16,
        0.0,
        0.0,
        0.0,
        0.0,
        1.0
      ],
      "name": "Sketchfab_model"
    },
    {
      "children": [
        2
      ],
      "matrix": [
        1.0,
        0.0,
        0.0,
        0.0,
        0.0,
        0.0,
        1.0,
        0.0,
        0.0,
        -1.0,
        0.0,
        0.0,
        0.0,
        0.0,
        0.0,
        1.0
      ],
      "name": "f5f075f071e74e2bb5d8dcafd41a2d11.fbx"
    },
    {
      "children": [
        3
      ],
      "name": "RootNode"
    },
    {
      "children": [
        4,
        5
      ],
      "name": "chair_combined_uvs_result"
    },
    {
      "mesh": 0,
      "name": "chair_combined_uvs_result_chair_black_metal_blinn_0"
    },
    {
      "mesh": 1,
      "name": "chair_combined_uvs_result_chair_wood_blinn_0"
    }
  ],
  "samplers": [
    {
      "magFilter": 9729,
      "minFilter": 9987,
      "wrapS": 10497,
      "wrapT": 10497
    }
  ],
  "scene": 0,
  "scenes": [
    {
      "name": "Sketchfab_Scene",
      "nodes": [
        0
      ]
    }
  ],
  "textures": [
    {
      "sampler": 0,
      "source": 0
    },
    {
      "sampler": 0,
      "source": 1
    }
  ]
}
